inDegrees=no
num_controls=7
num_derivatives=13
num_iterations=101
num_multipliers=7
num_parameters=0
num_slacks=7
num_states=26
objective=0.334191
objective_accelerations=0.036530
objective_balance=0.001198
objective_effort=0.027335
objective_height=0.267467
objective_ligament=0.001662
solver_duration=1042.756018
status=Solve_Succeeded
success=true
DataType=double
version=3
OpenSimVersion=4.5
endheader
time	/jointset/ground_pelvis/pelvis_tilt/value	/jointset/ground_pelvis/pelvis_tx/value	/jointset/ground_pelvis/pelvis_ty/value	/jointset/hip_r/hip_flexion_r/value	/jointset/hip_r/hip_adduction_r/value	/jointset/hip_r/hip_rotation_r/value	/jointset/back/lumbar_extension/value	/jointset/patellofemoral_r/patellar_flexion_r/value	/jointset/knee_r/knee_flexion_r/value	/jointset/knee_r/knee_adduction_r/value	/jointset/knee_r/knee_rotation_r/value	/jointset/ankle_r/ankle_angle_r/value	/jointset/subtalar_r/subtalar_angle_r/value	/jointset/ground_pelvis/pelvis_tilt/speed	/jointset/ground_pelvis/pelvis_tx/speed	/jointset/ground_pelvis/pelvis_ty/speed	/jointset/hip_r/hip_flexion_r/speed	/jointset/hip_r/hip_adduction_r/speed	/jointset/hip_r/hip_rotation_r/speed	/jointset/back/lumbar_extension/speed	/jointset/patellofemoral_r/patellar_flexion_r/speed	/jointset/knee_r/knee_flexion_r/speed	/jointset/knee_r/knee_adduction_r/speed	/jointset/knee_r/knee_rotation_r/speed	/jointset/ankle_r/ankle_angle_r/speed	/jointset/subtalar_r/subtalar_angle_r/speed	/forceset/tau_hip_flexion_r	/forceset/tau_hip_adduction_r	/forceset/tau_hip_rotation_r	/forceset/tau_knee_flexion_r	/forceset/tau_ankle_angle_r	/forceset/tau_subtalar_angle_r	/forceset/tau_lumbar_extension	lambda_cid13_p0	lambda_cid14_p0	lambda_cid14_p1	lambda_cid14_p2	lambda_cid14_p3	lambda_cid14_p4	lambda_cid14_p5	/jointset/ground_pelvis/pelvis_tilt/accel	/jointset/ground_pelvis/pelvis_tx/accel	/jointset/ground_pelvis/pelvis_ty/accel	/jointset/hip_r/hip_flexion_r/accel	/jointset/hip_r/hip_adduction_r/accel	/jointset/hip_r/hip_rotation_r/accel	/jointset/back/lumbar_extension/accel	/jointset/patellofemoral_r/patellar_flexion_r/accel	/jointset/knee_r/knee_flexion_r/accel	/jointset/knee_r/knee_adduction_r/accel	/jointset/knee_r/knee_rotation_r/accel	/jointset/ankle_r/ankle_angle_r/accel	/jointset/subtalar_r/subtalar_angle_r/accel	gamma_cid13_p0	gamma_cid14_p0	gamma_cid14_p1	gamma_cid14_p2	gamma_cid14_p3	gamma_cid14_p4	gamma_cid14_p5
1	-0.2813489690734899	-0.005939591336882212	0.6352174097428692	1.461185710263999	-0.2461957737961198	0.0184456116703472	-0.7853969787956032	1.508132584015141	1.508132584015143	-0.0535341351615581	0.1745154490894492	0.436221689360452	0.1582721976304463	0.07652879158425389	0.006023189527586638	0.01550768033045811	-0.1068696835109957	-0.0003181029549757057	-0.02592403430178393	-0.0002695947558237596	-0.01640564377999851	-0.01640564377999769	-0.02190515607105629	0.0001497205241989333	0.01589382321800328	0.007762158165192346	-0.3629617595488198	0.03563934689322493	0.02410149878199403	-0.4333182749872287	-0.05208092076040605	-0.0073415913322552	0.3730816368403301	-0.04071454230614581	-68.99637655226717	-18.16294856706175	6.622939720196752	8.301088684769748	-770.2757883354624	57.92858055836884	1.463345338894066	0.1720304054485987	1.814011336103018	-5.598049537770889	0.03157930764966307	-0.9803333588606893	-0.006549862050523642	-4.943577438790253	-4.943577438790266	0.5507508237309112	0.01553827148876368	-1.042836829376463	-0.4219241855707698	2.058880248507662e-09	-9.083015754273289e-10	-2.74771808250698e-09	7.835303629506913e-09	4.607236335065473e-09	-7.960373427601309e-09	-1.489439154460341e-09
1.01	-0.2805115258208961	-0.005870655423864462	0.6354631218068356	1.459837988240583	-0.2461971285879978	0.01813808679900429	-0.78539792499456	1.507721299374538	1.507721299374536	-0.05372525115344735	0.1745170588660734	0.4363285833721632	0.1583292084967039	0.09092955415435668	0.007778345371050425	0.03364151248946212	-0.1626818372196386	5.705659942772635e-05	-0.03557685325021542	0.0002071530864615807	-0.06588104443400629	-0.06588104443400514	-0.01631913366645114	0.0001512677778645064	0.005494246111372326	0.00366268598112553	-0.3634340884214216	0.03574992058483922	0.02411333286999926	-0.4336505510104651	-0.05206793464647974	-0.007338920485691447	0.3738770275616165	-0.0407188756885619	-69.03387804354139	-18.17680497431966	6.634800921761789	8.1103742513081	-771.017038821491	57.95516676476231	1.423896678565655	0.1794125538470809	1.8140835662648	-5.573865355379369	0.04197393322457719	-0.9571421334389147	0.09380682844706914	-4.953986098246804	-4.953986098246745	0.5623640124676894	-0.01067843770418523	-1.037128642347508	-0.4005552238085404	3.512546871311792e-09	-1.957297681983782e-09	5.416879091596033e-09	1.61501610859388e-08	7.649442734985688e-09	-1.291743136411616e-08	1.30742464469133e-08
1.02	-0.2795309839501	-0.005783737076401651	0.6358903750744853	1.457931931266493	-0.2461944338535527	0.01773415654405585	-0.7853902997710632	1.506814367783488	1.506814367783477	-0.05386053970856314	0.1745180558372366	0.4363317595145719	0.1583459053433239	0.1051485152243504	0.0096196764165992	0.05181592106709866	-0.2185366736470169	0.0004918023093849903	-0.04520511102282931	0.001444689771905257	-0.1155350338696436	-0.1155350338696421	-0.01073966871615204	2.71594311455883e-05	-0.00484975063690274	-0.0003006457622979798	-0.3639064172940102	0.03586049427645819	0.0241251669580246	-0.4339828270336998	-0.0520549485325545	-0.007336249639119824	0.374672418282915	-0.04072880634888431	-69.07886074938166	-18.1890657628787	6.643088837919325	7.921944340076653	-771.891036598372	57.98955884010854	1.42698503887234	0.1892654458655093	1.822126619829515	-5.606586081517908	0.04349653876045041	-0.9754211236971657	0.145607906581145	-4.979295195116185	-4.979295195116184	0.5494393328696942	-0.009592848588144416	-1.031720757705452	-0.3946960974421497	3.602705898409614e-09	-3.199909025995054e-10	2.153749953378853e-08	2.084812326585478e-08	3.030350128363184e-09	-1.484128204242357e-08	3.087734851854792e-08
1.03	-0.2784093069101577	-0.005678002672127488	0.6364994288508363	1.455467601457528	-0.246187181078561	0.0172341266419046	-0.7853659308209506	1.505410218837635	1.505410218837633	-0.0539399381006453	0.1745174376992987	0.4362316255139389	0.1583234223916586	0.1191405543213214	0.01153884049200002	0.0699868867727132	-0.2742862306422502	0.0009595584981542802	-0.05479017528879023	0.003614319352321558	-0.1653032602197777	-0.1653032602197761	-0.005126966753576785	-0.0001455416760064023	-0.0151828524675881	-0.004196899823479936	-0.3645799253062349	0.03603836539606727	0.02409257727316867	-0.4334088258749686	-0.05290976899982855	-0.007229007280953675	0.3756349226115101	-0.04074901235292819	-69.37331726363837	-18.17357985362934	6.617240907969619	7.982651518789038	-772.4156445936798	57.9664174836417	1.378363296216118	0.1949869346271442	1.81338607305619	-5.552681472317614	0.04854037307168537	-0.9484459225079899	0.2804233486228652	-4.976862828987406	-4.976862828987358	0.5691446814600634	-0.02031430380495732	-1.03497657836546	-0.3872242608887874	3.678951582694098e-09	1.344727130722958e-09	3.773930388687996e-08	2.550917835111242e-08	-1.66691899873429e-09	-1.673418162625945e-08	4.871350586028725e-08
1.04	-0.2771490994890264	-0.005552727617849217	0.6372899531896691	1.452447067885855	-0.2461752256988531	0.01663856672820177	-0.7853143090020469	1.503508132333476	1.50350813233348	-0.05396281766240181	0.1745152514378896	0.4360279861584674	0.1582619500592949	0.1328545914625623	0.01352780641742039	0.08811003356347205	-0.3297774261891439	0.001432323252382059	-0.06431111333324961	0.006895263526776147	-0.2151225455309276	-0.2151225455309259	0.0005640973493427939	-0.0002864652642070774	-0.02555082160288857	-0.008098521901964799	-0.365253433318443	0.03621623651568417	0.02405998758833662	-0.4328348247162368	-0.05376458946710443	-0.007121764922774171	0.3765974269401196	-0.04077497632521477	-69.67543341056674	-18.15652513416854	6.587818902997346	8.044517957900455	-773.0760865905355	57.95148454502821	1.371384647726322	0.2032258158694336	1.812562836858381	-5.554913791849994	0.04449825185214031	-0.9625958793968644	0.3678708253887474	-4.989506987319313	-4.989506987319312	0.5651117609385549	-0.003237344797866915	-1.03869421862844	-0.3957697009027312	4.71440879663493e-09	2.6016358848062e-09	5.161733886943727e-08	3.499802324700953e-08	-4.1408885593148e-09	-1.906316054794469e-08	6.862863034811661e-08
1.05	-0.2757532312628279	-0.0054071895399629	0.6382613740144044	1.448873176605916	-0.2461585070319134	0.01594806375787949	-0.7852242312131616	1.501107722976096	1.501107722976099	-0.05392850941319093	0.174511821580202	0.4357204612216005	0.1581614508614408	0.1462605834731202	0.01559384685118481	0.1061562700643269	-0.3849282551539422	0.001913821686476888	-0.07378499395353492	0.01131844527745725	-0.2649555758242753	-0.264955575824274	0.00629774164891917	-0.0003945912898550092	-0.03596332930928542	-0.01199969874647199	-0.3655269163661	0.0363351215787179	0.02403183420978755	-0.4320391009025141	-0.05438016226731456	-0.007002378709668849	0.3772728581658338	-0.04080853199142926	-69.8676030271473	-18.10904070134179	6.546800955967496	8.025493587005718	-773.2940261002557	57.94219084197489	1.316437028730982	0.2103974775001268	1.797970553989775	-5.484280498283569	0.05034460788119065	-0.9391121462182037	0.5092645039076981	-4.979639698893297	-4.979639698893332	0.5775230990609683	-0.01384946571019402	-1.04390554146711	-0.3870330649765459	5.779841370877517e-09	3.845800598913218e-09	6.542275605916541e-08	4.463773657448909e-08	-6.545380008441669e-09	-2.140576694893773e-08	8.860872255926128e-08
1.06	-0.2742250570063233	-0.00524057019366477	0.6394127205036063	1.444749954426435	-0.2461368995868929	0.01516295638277868	-0.7850839770759666	1.498209095586072	1.498209095586073	-0.05383685825406623	0.1745074606154086	0.4353085359087031	0.1580219916173911	0.1593157975240999	0.01774406009978272	0.1240951664568083	-0.4396436060982907	0.002410078868292009	-0.08323199428877488	0.01693053318813392	-0.314766152059655	-0.3147661520596542	0.01203267933224671	-0.0004726866859796753	-0.04643089680855411	-0.01589053114105275	-0.3658003994137386	0.03645400664175583	0.02400368083125793	-0.4312433770887904	-0.05499573506752745	-0.006882992496557342	0.3779482893915646	-0.0408481276689462	-70.06758517884849	-18.05994428727236	6.502122178340906	8.007161827380573	-773.6502580335846	57.94208487526711	1.30122905581068	0.2200603788361445	1.791094815183695	-5.467818187760046	0.04745000139618739	-0.9572198223877999	0.605652057387846	-4.98501617572571	-4.985016175725709	0.5653704376887865	0.002768781106810744	-1.049706177202782	-0.3937008109174508	6.626324787235676e-09	4.359418475670771e-09	7.571867399911055e-08	5.146860322429081e-08	-7.498300728158186e-09	-2.442813322973016e-08	1.028271235097193e-07
